<svg width="46" height="43" viewBox="0 0 46 43" fill="none" xmlns="http://www.w3.org/2000/svg">
<path d="M8.08594 22.7598H37.9141V25.2793H8.08594V22.7598Z" fill="#2F2F2F"/>
<path d="M44.6523 15.2012H41.957C41.2131 15.2012 40.6094 15.7655 40.6094 16.4609V26.5391C40.6094 27.2345 40.0056 27.7988 39.2617 27.7988H6.73828C5.99438 27.7988 5.39062 27.2345 5.39062 26.5391V16.4609C5.39062 15.7655 4.78687 15.2012 4.04297 15.2012H1.34766C0.60375 15.2012 0 15.7655 0 16.4609V31.5781C0 32.2735 0.60375 32.8379 1.34766 32.8379H5.39062V34.0977C5.39062 34.7934 5.99402 35.3574 6.73828 35.3574C7.48255 35.3574 8.08594 34.7934 8.08594 34.0977V32.8379H37.9141V34.0977C37.9141 34.7934 38.5175 35.3574 39.2617 35.3574C40.006 35.3574 40.6094 34.7934 40.6094 34.0977V32.8379H44.6523C45.3963 32.8379 46 32.2735 46 31.5781V16.4609C46 15.7655 45.3963 15.2012 44.6523 15.2012Z" fill="#2F2F2F"/>
<path d="M8.08594 16.4609V20.2402H21.6523V7.64258H9.43359C7.20457 7.64258 5.39062 9.33822 5.39062 11.4219V12.8983C6.9593 13.4173 8.08594 14.819 8.08594 16.4609Z" fill="#2F2F2F"/>
<path d="M37.9141 16.4609C37.9141 14.819 39.0407 13.4173 40.6094 12.8983V11.4219C40.6094 9.33822 38.7954 7.64258 36.5664 7.64258H24.3477V20.2402H37.9141V16.4609Z" fill="#2F2F2F"/>
</svg>
