<svg width="36" height="35" viewBox="0 0 36 35" fill="none" xmlns="http://www.w3.org/2000/svg">
<g clip-path="url(#clip0)">
<path d="M35.768 14.8073C35.5673 14.5648 35.2657 14.4238 34.9451 14.4238H5.27346C4.77908 14.4238 4.35061 14.7571 4.24349 15.2268L0.0250046 33.8203C-0.0442094 34.1237 0.0321457 34.4412 0.231823 34.6847C0.432599 34.9269 0.804761 35.0682 1.12501 35.0682H30.7264C31.2208 35.0682 31.6492 34.7347 31.7564 34.265L35.9751 15.6714C36.0441 15.368 35.968 15.0505 35.768 14.8073ZM27.492 29.9412C27.492 30.5078 27.0204 30.9666 26.4373 30.9666H18.0001C17.417 30.9666 16.9454 30.5078 16.9454 29.9412V25.8396C16.9454 25.2727 17.417 24.8142 18.0001 24.8142H26.4373C27.0204 24.8142 27.492 25.2727 27.492 25.8396V29.9412Z" fill="#2F2F2F"/>
<path d="M19.0547 26.865H25.3826V28.9158H19.0547V26.865Z" fill="#2F2F2F"/>
<path d="M4.21876 12.5477V8.27148H1.05469C0.471864 8.27148 0 8.72997 0 9.29688V24.4751L2.18464 14.7822C2.42826 13.7143 3.20967 12.8903 4.21876 12.5477Z" fill="#2F2F2F"/>
<path d="M21.1639 12.3728V8.90517C21.8121 8.18392 22.2185 7.25172 22.2185 6.22072C22.2185 4.23002 19.3585 1.01364 18.7848 0.3928C18.3851 -0.0397876 17.6147 -0.0397876 17.2151 0.3928C16.6413 1.01364 13.7813 4.23002 13.7813 6.22072C13.7813 7.25172 14.1878 8.18365 14.836 8.90517V12.3728H21.1639Z" fill="#2F2F2F"/>
<path d="M35.2003 3.10558L29.4984 0.43795C29.244 0.318855 28.9545 0.301765 28.692 0.394691C28.4283 0.483879 28.2121 0.672135 28.0905 0.917535L23.2732 10.6521V12.3728H30.6854L27.7763 11.0121C27.2511 10.7667 27.0306 10.1538 27.283 9.64326C27.5362 9.13457 28.1676 8.91934 28.6909 9.16367L32.4933 10.9421L33.4073 9.09425L29.6055 7.3161C29.0801 7.0707 28.8598 6.45786 29.1119 5.9473C29.3665 5.43754 29.9988 5.22232 30.5198 5.46772L34.3222 7.24587L35.6936 4.47437C35.946 3.96354 35.7257 3.35071 35.2003 3.10558Z" fill="#2F2F2F"/>
<path d="M6.32814 12.3728H12.7266V9.60903C12.4459 9.19754 12.2339 8.74386 12.0605 8.27148H6.32814V12.3728Z" fill="#2F2F2F"/>
<path d="M10.5626 0.753097C10.2764 -0.0840403 8.84868 -0.0840403 8.56249 0.753097L6.69344 6.22053H11.6719C11.6719 5.75082 11.7807 5.25976 11.9323 4.76415L10.5626 0.753097Z" fill="#2F2F2F"/>
</g>
<defs>
<clipPath id="clip0">
<rect width="36" height="35" fill="white"/>
</clipPath>
</defs>
</svg>
