<svg width="40" height="39" viewBox="0 0 40 39" fill="none" xmlns="http://www.w3.org/2000/svg">
<g clip-path="url(#clip0)">
<path d="M5.96662 14.1541C6.66411 15.3369 7.69317 16.3514 8.98457 17.05V11.8476C8.98457 10.9008 9.3916 9.98749 10.1017 9.34156L15.387 4.53164L9.26128 6.83514C8.95207 6.95138 8.70777 7.18994 8.58894 7.49174L5.96638 14.1533C5.2856 12.9996 4.92209 11.6871 4.92209 10.3241C4.92209 6.08203 8.46184 2.63078 12.8127 2.63078C13.8706 2.63078 14.8918 2.83088 15.8347 3.21189C16.2573 3.38267 16.743 3.29736 17.0775 2.99305C17.7011 2.42557 17.5084 1.42422 16.7237 1.10743C9.97855 -1.61585 2.57835 3.248 2.57835 10.3242C2.57835 12.6843 3.41788 14.9285 4.956 16.7195L5.96662 14.1541Z" fill="#2F2F2F"/>
<path d="M22.6582 2.46741C22.2061 2.07109 21.5175 2.07848 21.076 2.48074L11.701 11.0119C11.4635 11.2283 11.3284 11.5307 11.3284 11.8475V17.8786C15.6298 18.6829 19.761 15.9488 20.5645 11.7714H20.0002C19.353 11.7714 18.8283 11.2598 18.8283 10.6288C18.8283 9.9978 19.353 9.48623 20.0002 9.48623H23.7502C24.3973 9.48623 24.922 9.9978 24.922 10.6288C24.922 11.2598 24.3973 11.7714 23.7502 11.7714H22.9387C22.1402 17.1504 16.9919 21.0059 11.3284 20.1976V28.9861H20.9205C18.1008 21.5952 24.2266 13.7356 32.422 14.5743V11.8475C32.422 11.5308 32.2871 11.2283 32.0496 11.0123C31.8357 10.8176 22.72 2.5215 22.6582 2.46741Z" fill="#2F2F2F"/>
<path d="M8.98455 19.5767C7.45902 18.976 6.08777 18.0309 4.95575 16.7205L0.0780423 29.1101C-0.153831 29.699 0.148276 30.3605 0.752648 30.5863L8.98455 33.6628C8.98455 31.9947 8.98455 21.2154 8.98455 19.5767Z" fill="#2F2F2F"/>
<path d="M22.1298 31.2712H11.3283V37.5173C11.3283 38.1483 11.853 38.6599 12.5002 38.6599H31.25C31.8972 38.6599 32.4219 38.1483 32.4219 37.5173V35.9335C28.2444 36.3605 24.3631 34.4779 22.1298 31.2712Z" fill="#2F2F2F"/>
<path d="M33.902 17.1967C28.214 15.4491 22.5782 19.6072 22.5782 25.2538C22.5782 30.6797 27.7915 34.763 33.3023 33.4729C37.1487 32.5786 40 29.2228 40 25.2538C40 21.4847 37.4341 18.2846 33.902 17.1967ZM34.2741 27.4945C31.5555 28.8198 31.6575 28.7966 31.3787 28.8266C31.1586 28.85 30.9427 28.8132 30.7461 28.7216C30.6657 28.6841 31.189 28.9389 28.226 27.4945C27.6471 27.2123 27.4125 26.526 27.7019 25.9616C27.9915 25.3973 28.6955 25.1685 29.2741 25.4507L30.0782 25.8426V22.8163C30.0782 22.1853 30.6028 21.6738 31.25 21.6738C31.8972 21.6738 32.4219 22.1853 32.4219 22.8163V25.8426L33.226 25.4507C33.8049 25.1684 34.5088 25.3972 34.7981 25.9616C35.0876 26.526 34.853 27.2123 34.2741 27.4945Z" fill="#2F2F2F"/>
</g>
<defs>
<clipPath id="clip0">
<rect width="40" height="39" fill="white"/>
</clipPath>
</defs>
</svg>
