<svg width="44" height="44" viewBox="0 0 44 44" fill="none" xmlns="http://www.w3.org/2000/svg">
<g opacity="0.5">
<path d="M42.7401 36.4801L41.3242 35.0638C41.0724 34.812 40.6642 34.812 40.4124 35.0638C40.1606 35.3155 40.1606 35.7234 40.4124 35.9752L41.8287 37.3915C41.8391 37.4022 41.8713 37.4341 41.8529 37.4912C41.8344 37.5479 41.7898 37.5549 41.7753 37.557L38.3892 38.085C37.7903 38.1783 37.3254 38.6436 37.2321 39.2421L36.7047 42.6269C36.7023 42.6417 36.6953 42.687 36.6382 42.7055C36.5818 42.7239 36.5506 42.6931 36.5392 42.6813L30.3678 36.5099C32.5109 35.1742 34.3115 33.339 35.606 31.1681L38.5194 34.0822C38.645 34.2081 38.8101 34.2709 38.975 34.2709C39.1401 34.2709 39.305 34.2081 39.4308 34.0822C39.6826 33.8304 39.6826 33.4222 39.4308 33.1708L36.2455 29.9844C37.2552 27.9058 37.8222 25.5741 37.8222 23.1121V7.20229C37.8222 5.31637 36.2888 3.78225 34.4042 3.78225C34.0624 3.78225 33.7237 3.83327 33.3971 3.93432C32.6277 4.17165 31.8244 4.29183 31.0097 4.29183C28.552 4.29183 26.2562 3.19244 24.7111 1.27563C24.0578 0.464934 23.0863 0 22.0463 0C21.006 0 20.0349 0.464934 19.3819 1.2753C17.8364 3.19244 15.5406 4.29183 13.083 4.29183C12.2683 4.29183 11.4646 4.17165 10.6955 3.93398C10.3689 3.83327 10.0302 3.78225 9.68847 3.78225C7.80355 3.78225 6.27044 5.31637 6.27044 7.20229V14.1807C6.27044 14.5365 6.5588 14.8252 6.91497 14.8252C7.27081 14.8252 7.5595 14.5365 7.5595 14.1807V7.20229C7.5595 6.02736 8.51455 5.07131 9.68847 5.07131C9.90096 5.07131 10.1118 5.1032 10.3155 5.16597C11.2081 5.44124 12.139 5.58089 13.083 5.58089C15.9324 5.58089 18.5941 4.3066 20.3857 2.08432C20.7925 1.57876 21.3978 1.28906 22.0463 1.28906C22.6945 1.28906 23.2998 1.57876 23.7073 2.08432C25.4986 4.30627 28.16 5.58089 31.0097 5.58089C31.9533 5.58089 32.8845 5.44124 33.7771 5.16597C33.9805 5.1032 34.1913 5.07131 34.4042 5.07131C35.5781 5.07131 36.5331 6.02736 36.5331 7.20229V23.1118C36.5331 25.5157 35.9447 27.7846 34.904 29.7823C34.8929 29.8008 34.8832 29.8199 34.8741 29.8391C32.4098 34.5196 27.5309 37.5989 22.0463 37.5989C19.5259 37.5989 17.1539 36.9517 15.0874 35.8154C15.0814 35.812 15.0757 35.8087 15.0693 35.8053C10.4824 33.2742 7.5595 28.4479 7.5595 23.1118V16.7588C7.5595 16.4026 7.27081 16.1143 6.91497 16.1143C6.5588 16.1143 6.27044 16.4026 6.27044 16.7588V23.1118C6.27044 25.5737 6.83743 27.9058 7.84719 29.9841L4.6326 33.1997C4.38083 33.4518 4.38083 33.8596 4.6326 34.1114C4.75848 34.2373 4.92331 34.3001 5.08847 34.3001C5.25329 34.3001 5.41846 34.2373 5.54434 34.1114L8.48669 31.1681C9.78112 33.3386 11.5821 35.1742 13.7248 36.5099L7.55346 42.6813C7.54205 42.6931 7.51083 42.7239 7.45443 42.7055C7.39736 42.6867 7.39031 42.6417 7.3883 42.6269L6.86059 39.2418C6.76727 38.6436 6.30233 38.1783 5.70346 38.0847L2.31766 37.557C2.30289 37.5549 2.25858 37.5479 2.24012 37.4912C2.22132 37.4341 2.25354 37.4022 2.26395 37.3915L3.72321 35.9322C3.97498 35.6804 3.97498 35.2726 3.72321 35.0208C3.4711 34.769 3.06324 34.7694 2.8118 35.0208L1.35255 36.4801C0.981269 36.8513 0.851692 37.3918 1.0145 37.8906C1.17698 38.3898 1.60029 38.7497 2.11893 38.8309L5.50473 39.3583C5.54736 39.365 5.58026 39.3979 5.58697 39.4405L6.11468 42.8257C6.19558 43.3446 6.55578 43.7683 7.05462 43.9308C7.19696 43.9774 7.34265 43.9999 7.48699 43.9999C7.8482 43.9999 8.20001 43.8582 8.4652 43.5927L14.889 37.1689C17.0385 38.2676 19.4712 38.888 22.0463 38.888C24.6214 38.888 27.0545 38.2676 29.2036 37.1689L35.6274 43.5927C35.893 43.8582 36.2448 43.9999 36.6057 43.9999C36.75 43.9999 36.8957 43.9774 37.0384 43.9308C37.5372 43.7683 37.8974 43.3446 37.9783 42.8257L38.506 39.4405C38.5124 39.3979 38.5456 39.365 38.5879 39.3583L41.974 38.8306C42.4924 38.7497 42.9157 38.3895 43.0785 37.8906C43.241 37.3918 43.1114 36.8513 42.7401 36.4801Z" fill="#2F2F2F"/>
<path d="M8.7999 23.1117C8.7999 30.416 14.742 36.3582 22.0464 36.3582C29.3584 36.3582 35.2928 30.4087 35.2928 23.1117V16.7587C35.2928 16.4025 35.0041 16.1142 34.6483 16.1142C34.2921 16.1142 34.0038 16.4025 34.0038 16.7587V23.1117C34.0038 25.2833 33.4217 27.3216 32.4055 29.0786L27.726 24.3984C27.4742 24.147 27.066 24.1466 26.8145 24.3984C26.5628 24.6502 26.5628 25.0584 26.8142 25.3101L31.6848 30.1807C29.5065 33.1432 25.9971 35.0691 22.0464 35.0691C15.453 35.0691 10.089 29.705 10.089 23.112V8.58356L19.9825 18.4778C20.1084 18.6037 20.2732 18.6664 20.4384 18.6664C20.6032 18.6664 20.768 18.6037 20.8939 18.4778C21.1457 18.226 21.1457 17.8178 20.8943 17.566L11.3069 7.97864C11.8923 8.06625 12.4858 8.11056 13.083 8.11056C16.541 8.11056 19.7811 6.63251 22.0464 4.03928C24.3113 6.63251 27.5514 8.11056 31.0097 8.11056C32.0248 8.11056 33.0296 7.98267 34.0038 7.73022V14.1806C34.0038 14.5364 34.2921 14.8251 34.6483 14.8251C35.0041 14.8251 35.2928 14.5364 35.2928 14.1806V7.20251C35.2928 6.92087 35.1575 6.65265 34.9306 6.48547C34.705 6.31897 34.4103 6.26862 34.1427 6.3512C33.1316 6.66305 32.0775 6.8215 31.0097 6.8215C27.783 6.8215 24.7692 5.37836 22.7412 2.86267C22.5707 2.65085 22.3173 2.52966 22.0464 2.52966C21.7751 2.52966 21.5217 2.65085 21.3511 2.86267C19.3232 5.37836 16.3097 6.8215 13.083 6.8215C12.0152 6.8215 10.9611 6.66305 9.94965 6.3512C9.6821 6.26862 9.3877 6.31897 9.16177 6.48547C9.08289 6.54355 9.01541 6.61404 8.96036 6.6926C8.95633 6.6983 8.95264 6.70367 8.94894 6.70938C8.85864 6.84433 8.80762 7.00043 8.80057 7.1629C8.80057 7.16659 8.80057 7.17029 8.80023 7.17398V7.18002C8.80023 7.18237 8.7999 7.18506 8.7999 7.18774V7.20084V7.20184V23.1117Z" fill="#2F2F2F"/>
<path d="M25.934 14.9362L20.3048 21.0535L18.1268 18.7628C17.0351 17.6147 15.213 17.5684 14.0649 18.6601C12.9168 19.7514 12.8705 21.5735 13.9619 22.7219L17.9277 26.8936C18.5515 27.5495 19.4283 27.9259 20.3336 27.9259H20.3605C21.2759 27.9181 22.1561 27.5277 22.7755 26.8543L30.1621 18.8269C31.2346 17.6614 31.1591 15.8402 29.9936 14.7674C28.8277 13.6948 27.0066 13.7704 25.934 14.9362ZM29.1208 15.716C29.7633 16.3075 29.8049 17.3116 29.2137 17.9541L21.8268 25.9815C21.4481 26.3934 20.91 26.6321 20.3555 26.6368H20.3336C19.7798 26.6368 19.2437 26.4065 18.8623 26.0054L14.8964 21.8337C14.2945 21.2006 14.32 20.1962 14.9532 19.5943C15.2593 19.3032 15.6521 19.1592 16.0442 19.1592C16.4631 19.1592 16.8817 19.3241 17.1926 19.651L19.8452 22.4413C19.9667 22.5695 20.1356 22.642 20.3122 22.642H20.3175C20.4958 22.6404 20.666 22.5652 20.7865 22.4339L26.8827 15.809C27.4738 15.1665 28.4779 15.1245 29.1208 15.716Z" fill="#2F2F2F"/>
</g>
</svg>
