<svg width="22" height="22" viewBox="0 0 22 22" fill="none" xmlns="http://www.w3.org/2000/svg">
<path d="M16.7261 14.5536C16.0074 13.844 15.1101 13.844 14.3959 14.5536C13.8511 15.0938 13.3063 15.634 12.7707 16.1833C12.6242 16.3344 12.5006 16.3665 12.3221 16.2657C11.9696 16.0735 11.5942 15.9178 11.2554 15.7072C9.67599 14.7138 8.35296 13.4365 7.18099 11.9991C6.59958 11.2849 6.08227 10.5204 5.72061 9.6597C5.64736 9.48573 5.6611 9.37128 5.80301 9.22937C6.34779 8.7029 6.87884 8.16269 7.41447 7.62249C8.16068 6.8717 8.16068 5.99273 7.40989 5.23736C6.98414 4.80703 6.55838 4.38585 6.13263 3.95552C5.69314 3.51603 5.25823 3.07197 4.81417 2.63706C4.09542 1.93663 3.19814 1.93663 2.48397 2.64164C1.93461 3.18184 1.40814 3.73578 0.849626 4.26682C0.332313 4.75667 0.0713676 5.35639 0.0164317 6.05682C-0.0705501 7.19674 0.208707 8.27257 0.602415 9.32093C1.40814 11.4909 2.63504 13.4182 4.12289 15.1853C6.13263 17.575 8.5315 19.4658 11.3378 20.83C12.6013 21.4434 13.9106 21.915 15.3344 21.9928C16.3141 22.0477 17.1656 21.8005 17.8477 21.036C18.3147 20.5141 18.8411 20.038 19.3356 19.539C20.068 18.7974 20.0726 17.9001 19.3447 17.1676C18.4749 16.2932 17.6005 15.4234 16.7261 14.5536Z" fill="#3E3E3E"/>
<path d="M15.8517 10.9049L17.541 10.6165C17.2755 9.06457 16.543 7.65913 15.4305 6.5421C14.254 5.36555 12.7661 4.62392 11.1272 4.39502L10.8892 6.09346C12.1573 6.272 13.3109 6.84425 14.2219 7.75527C15.0826 8.61593 15.6457 9.70549 15.8517 10.9049Z" fill="#3E3E3E"/>
<path d="M18.493 3.56168C16.5428 1.61145 14.0752 0.379973 11.3513 0L11.1133 1.69843C13.4664 2.02805 15.5997 3.09472 17.2844 4.77485C18.8821 6.37257 19.9305 8.39146 20.3105 10.6118L21.9997 10.3234C21.5557 7.75054 20.3425 5.41576 18.493 3.56168Z" fill="#3E3E3E"/>
</svg>
