<svg width="49" height="49" viewBox="0 0 49 49" fill="none" xmlns="http://www.w3.org/2000/svg">
<g clip-path="url(#clip0)">
<path d="M45.8044 9.54755H42.2376C42.7081 8.80298 43.0186 7.9672 43.1071 7.08329C43.3899 4.25842 41.9022 1.72611 39.3694 0.603419C37.0413 -0.428548 34.4251 -0.00668827 32.5412 1.702L28.0374 5.78373C27.1603 4.82441 25.8994 4.22148 24.5 4.22148C23.0981 4.22148 21.8352 4.82632 20.9579 5.78862L16.4484 1.70152C14.5614 -0.00716671 11.9462 -0.427399 9.61922 0.603993C7.0871 1.72678 5.59911 4.25995 5.88278 7.08472C5.97149 7.96797 6.28176 8.80336 6.75214 9.54755H3.19562C1.43067 9.54755 0 10.9783 0 12.7432V17.5367C0 18.419 0.715381 19.1345 1.59786 19.1345H47.4022C48.2846 19.1345 49.0001 18.4191 49.0001 17.5367V12.7432C49 10.9783 47.5693 9.54755 45.8044 9.54755ZM19.7065 9.01496V9.54755H12.1897C10.2037 9.54755 8.64065 7.69607 9.13668 5.62831C9.35517 4.7177 10.0125 3.94145 10.8626 3.54849C12.03 3.00892 13.3231 3.18214 14.3036 4.0696L19.7079 8.96787C19.7076 8.98366 19.7065 8.99917 19.7065 9.01496ZM39.9363 6.65903C39.8173 8.31977 38.3171 9.54774 36.6522 9.54774H29.2935V9.01515C29.2935 8.9963 29.2923 8.97763 29.2921 8.95878C30.5164 7.84901 33.1722 5.44188 34.6127 4.1362C35.4313 3.39422 36.5768 3.04787 37.6356 3.36369C39.1551 3.81694 40.0475 5.10912 39.9363 6.65903Z" fill="#2F2F2F"/>
<path d="M3.1955 22.3267V45.7615C3.1955 47.5265 4.62616 48.9572 6.39112 48.9572H21.3042V22.3267H3.1955Z" fill="#2F2F2F"/>
<path d="M27.6955 22.3267V48.9572H42.6085C44.3735 48.9572 45.8041 47.5265 45.8041 45.7615V22.3267H27.6955Z" fill="#2F2F2F"/>
</g>
<defs>
<clipPath id="clip0">
<rect width="49" height="49" fill="white"/>
</clipPath>
</defs>
</svg>
