<svg width="26" height="26" viewBox="0 0 26 26" fill="none" xmlns="http://www.w3.org/2000/svg">
<g clip-path="url(#clip0)">
<path d="M13.9513 1.58056L12.2034 1.591C11.7275 1.591 11.3345 1.98407 11.3241 2.47022L11.324 11.2416L2.38729 11.2416C1.91128 11.2416 1.51821 11.6346 1.50808 12.1208V13.8792C1.50797 14.3551 1.90103 14.7482 2.38729 14.7584L11.3036 14.7584L11.3242 23.5299C11.3242 24.0057 11.7173 24.3988 12.2035 24.4091L13.9619 24.4091C14.4377 24.4091 14.8308 24.016 14.8411 23.5299L14.841 14.7585L23.6125 14.7585C24.0883 14.7585 24.4813 14.3655 24.4917 13.8793V12.1209C24.4917 11.6451 24.0986 11.252 23.6125 11.2417L14.8307 11.252L14.8308 2.48067C14.8306 1.98396 14.4375 1.5909 13.9513 1.58056Z" fill="#2F2F2F"/>
</g>
<defs>
<clipPath id="clip0">
<rect width="18" height="18" fill="white" transform="translate(0.271988 13) rotate(-45)"/>
</clipPath>
</defs>
</svg>
