<svg width="27" height="18" viewBox="0 0 27 18" fill="none" xmlns="http://www.w3.org/2000/svg">
<g clip-path="url(#clip0)">
<path d="M0.621016 1.18115C0.405016 1.5749 0.27002 2.02491 0.27002 2.50303V14.9624C0.27002 15.4405 0.405016 15.8905 0.621016 16.2562L7.85701 8.71865L0.621016 1.18115Z" fill="white"/>
<path d="M16.119 11.8407C15.417 12.572 14.472 12.9657 13.5 12.9657C12.501 12.9657 11.556 12.572 10.881 11.8407L8.77498 9.64697L1.56598 17.1564C1.91698 17.3532 2.29498 17.4657 2.72698 17.4657H24.327C24.732 17.4657 25.137 17.3532 25.488 17.1564L18.279 9.64697L16.119 11.8407Z" fill="white"/>
<path d="M26.379 1.18115L19.143 8.71865L26.379 16.2562C26.595 15.8905 26.73 15.4405 26.73 14.9624V2.50303C26.73 1.99678 26.595 1.54678 26.379 1.18115Z" fill="white"/>
<path d="M11.7721 10.8843C12.2311 11.3624 12.8791 11.6155 13.5001 11.6155C14.1211 11.6155 14.7421 11.3624 15.2281 10.8843L25.4611 0.224896C25.1101 0.0280205 24.7321 -0.0844727 24.3271 -0.0844727H2.72713C2.32213 -0.0844727 1.91714 0.0280205 1.59314 0.224896L11.7721 10.8843Z" fill="white"/>
</g>
<defs>
<clipPath id="clip0">
<rect width="27" height="18" fill="white"/>
</clipPath>
</defs>
</svg>
