<svg width="36" height="40" viewBox="0 0 36 40" fill="none" xmlns="http://www.w3.org/2000/svg">
<path d="M1.20312 31.7188C1.52672 31.7188 1.78906 31.4564 1.78906 31.1328V3.32031C1.78906 2.13563 2.75281 1.17188 3.9375 1.17188H24.7188C25.0423 1.17188 25.3047 0.909531 25.3047 0.585938C25.3047 0.262344 25.0423 0 24.7188 0H3.9375C2.10664 0 0.617188 1.48945 0.617188 3.32031V31.1328C0.617188 31.4564 0.879531 31.7188 1.20312 31.7188Z" fill="#2F2F2F"/>
<path d="M32.0625 0H27.4531C27.1295 0 26.8672 0.262344 26.8672 0.585938C26.8672 0.909531 27.1295 1.17188 27.4531 1.17188H32.0625C33.2472 1.17188 34.2109 2.13563 34.2109 3.32031V36.6797C34.2109 37.8644 33.2472 38.8281 32.0625 38.8281H3.9375C2.75281 38.8281 1.78906 37.8644 1.78906 36.6797V33.8672C1.78906 33.5436 1.52672 33.2812 1.20312 33.2812C0.879531 33.2812 0.617188 33.5436 0.617188 33.8672V36.6797C0.617188 38.5105 2.10664 40 3.9375 40H32.0625C33.8934 40 35.3828 38.5105 35.3828 36.6797V3.32031C35.3828 1.48945 33.8934 0 32.0625 0Z" fill="#2F2F2F"/>
<path d="M8.59274 30.8135H4.71875C4.05102 30.8135 3.50781 31.3567 3.50781 32.0244V35.8984C3.50781 36.5661 4.05102 37.1093 4.71875 37.1093H8.59274C9.26047 37.1093 9.80367 36.5661 9.80367 35.8984V32.0244C9.80367 31.3567 9.26047 30.8135 8.59274 30.8135ZM8.6318 35.8984C8.6318 35.92 8.6143 35.9375 8.59274 35.9375H4.71875C4.69719 35.9375 4.67969 35.92 4.67969 35.8984V32.0244C4.67969 32.0029 4.69719 31.9854 4.71875 31.9854H8.59274C8.6143 31.9854 8.6318 32.0029 8.6318 32.0244V35.8984Z" fill="#2F2F2F"/>
<path d="M32.4922 4.10156C32.4922 3.43383 31.949 2.89062 31.2812 2.89062H4.71875C4.05102 2.89062 3.50781 3.43383 3.50781 4.10156V13.1714C3.50781 13.8391 4.05102 14.3823 4.71875 14.3823H31.2812C31.949 14.3823 32.4922 13.8391 32.4922 13.1714V4.10156ZM31.3203 13.1714C31.3203 13.193 31.3028 13.2105 31.2812 13.2105H4.71875C4.69719 13.2105 4.67969 13.193 4.67969 13.1714V4.10156C4.67969 4.08 4.69719 4.0625 4.71875 4.0625H31.2812C31.3028 4.0625 31.3203 4.08 31.3203 4.10156V13.1714Z" fill="#2F2F2F"/>
<path d="M31.2813 16.0229H27.8195C27.1517 16.0229 26.6085 16.5662 26.6085 17.2339V35.8985C26.6085 36.5662 27.1517 37.1094 27.8195 37.1094H31.2813C31.949 37.1094 32.4922 36.5662 32.4922 35.8985V17.2339C32.4922 16.5662 31.949 16.0229 31.2813 16.0229ZM31.3203 35.8985C31.3203 35.9201 31.3028 35.9376 31.2813 35.9376H27.8195C27.7979 35.9376 27.7804 35.9201 27.7804 35.8985V17.2339C27.7804 17.2123 27.7979 17.1948 27.8195 17.1948H31.2813C31.3028 17.1948 31.3203 17.2123 31.3203 17.2339V35.8985Z" fill="#2F2F2F"/>
<path d="M16.2781 30.8135H12.4041C11.7364 30.8135 11.1932 31.3567 11.1932 32.0244V35.8984C11.1932 36.5661 11.7364 37.1093 12.4041 37.1093H16.2781C16.9459 37.1093 17.4891 36.5661 17.4891 35.8984V32.0244C17.4891 31.3567 16.9459 30.8135 16.2781 30.8135ZM16.3172 35.8984C16.3172 35.92 16.2997 35.9375 16.2781 35.9375H12.4041C12.3826 35.9375 12.3651 35.92 12.3651 35.8984V32.0244C12.3651 32.0029 12.3826 31.9854 12.4041 31.9854H16.2781C16.2997 31.9854 16.3172 32.0029 16.3172 32.0244V35.8984Z" fill="#2F2F2F"/>
<path d="M23.9635 30.8135H20.0895C19.4218 30.8135 18.8786 31.3567 18.8786 32.0244V35.8984C18.8786 36.5661 19.4218 37.1093 20.0895 37.1093H23.9635C24.6313 37.1093 25.1745 36.5661 25.1745 35.8984V32.0244C25.1745 31.3567 24.6313 30.8135 23.9635 30.8135ZM24.0026 35.8984C24.0026 35.92 23.9851 35.9375 23.9635 35.9375H20.0895C20.068 35.9375 20.0505 35.92 20.0505 35.8984V32.0244C20.0505 32.0029 20.068 31.9854 20.0895 31.9854H23.9635C23.9851 31.9854 24.0026 32.0029 24.0026 32.0244V35.8984Z" fill="#2F2F2F"/>
<path d="M9.80367 24.6812C9.80367 24.0134 9.26047 23.4702 8.59274 23.4702H4.71875C4.05102 23.4702 3.50781 24.0134 3.50781 24.6812V28.5551C3.50781 29.2229 4.05102 29.7661 4.71875 29.7661H8.59274C9.26047 29.7661 9.80367 29.2229 9.80367 28.5551V24.6812ZM8.6318 28.5552C8.6318 28.5768 8.6143 28.5943 8.59274 28.5943H4.71875C4.69719 28.5943 4.67969 28.5768 4.67969 28.5552V24.6812C4.67969 24.6597 4.69719 24.6422 4.71875 24.6422H8.59274C8.6143 24.6422 8.6318 24.6597 8.6318 24.6812V28.5552Z" fill="#2F2F2F"/>
<path d="M17.4891 24.6812C17.4891 24.0134 16.9459 23.4702 16.2781 23.4702H12.4041C11.7364 23.4702 11.1932 24.0134 11.1932 24.6812V28.5551C11.1932 29.2229 11.7364 29.7661 12.4041 29.7661H16.2781C16.9459 29.7661 17.4891 29.2229 17.4891 28.5551V24.6812ZM16.3172 28.5552C16.3172 28.5768 16.2997 28.5943 16.2781 28.5943H12.4041C12.3826 28.5943 12.3651 28.5768 12.3651 28.5552V24.6812C12.3651 24.6597 12.3826 24.6422 12.4041 24.6422H16.2781C16.2997 24.6422 16.3172 24.6597 16.3172 24.6812V28.5552Z" fill="#2F2F2F"/>
<path d="M25.1745 24.6812C25.1745 24.0134 24.6313 23.4702 23.9635 23.4702H20.0895C19.4218 23.4702 18.8786 24.0134 18.8786 24.6812V28.5551C18.8786 29.2229 19.4218 29.7661 20.0895 29.7661H23.9635C24.6313 29.7661 25.1745 29.2229 25.1745 28.5551V24.6812ZM24.0026 28.5552C24.0026 28.5768 23.9851 28.5943 23.9635 28.5943H20.0895C20.068 28.5943 20.0505 28.5768 20.0505 28.5552V24.6812C20.0505 24.6597 20.068 24.6422 20.0895 24.6422H23.9635C23.9851 24.6422 24.0026 24.6597 24.0026 24.6812V28.5552Z" fill="#2F2F2F"/>
<path d="M9.80367 17.2339C9.80367 16.5662 9.26047 16.0229 8.59274 16.0229H4.71875C4.05102 16.0229 3.50781 16.5662 3.50781 17.2339V21.1079C3.50781 21.7756 4.05102 22.3188 4.71875 22.3188H8.59274C9.26047 22.3188 9.80367 21.7756 9.80367 21.1079V17.2339ZM8.6318 21.1079C8.6318 21.1294 8.6143 21.1469 8.59274 21.1469H4.71875C4.69719 21.1469 4.67969 21.1294 4.67969 21.1079V17.2339C4.67969 17.2123 4.69719 17.1948 4.71875 17.1948H8.59274C8.6143 17.1948 8.6318 17.2123 8.6318 17.2339V21.1079Z" fill="#2F2F2F"/>
<path d="M17.4891 17.2339C17.4891 16.5662 16.9459 16.0229 16.2781 16.0229H12.4041C11.7364 16.0229 11.1932 16.5662 11.1932 17.2339V21.1079C11.1932 21.7756 11.7364 22.3188 12.4041 22.3188H16.2781C16.9459 22.3188 17.4891 21.7756 17.4891 21.1079V17.2339ZM16.3172 21.1079C16.3172 21.1294 16.2997 21.1469 16.2781 21.1469H12.4041C12.3826 21.1469 12.3651 21.1294 12.3651 21.1079V17.2339C12.3651 17.2123 12.3826 17.1948 12.4041 17.1948H16.2781C16.2997 17.1948 16.3172 17.2123 16.3172 17.2339V21.1079Z" fill="#2F2F2F"/>
<path d="M25.1745 17.2339C25.1745 16.5662 24.6313 16.0229 23.9635 16.0229H20.0895C19.4218 16.0229 18.8786 16.5662 18.8786 17.2339V21.1079C18.8786 21.7756 19.4218 22.3188 20.0895 22.3188H23.9635C24.6313 22.3188 25.1745 21.7756 25.1745 21.1079V17.2339ZM24.0026 21.1079C24.0026 21.1294 23.9851 21.1469 23.9635 21.1469H20.0895C20.068 21.1469 20.0505 21.1294 20.0505 21.1079V17.2339C20.0505 17.2123 20.068 17.1948 20.0895 17.1948H23.9635C23.9851 17.1948 24.0026 17.2123 24.0026 17.2339V21.1079Z" fill="#2F2F2F"/>
</svg>
