<svg width="17" height="17" viewBox="0 0 17 17" fill="none" xmlns="http://www.w3.org/2000/svg">
<path d="M16.5129 8.3036C16.2424 8.3036 16.0259 8.52007 16.0259 8.79066V13.221C16.0259 14.4261 15.0446 15.4038 13.8432 15.4038H3.15683C1.95183 15.4038 0.974109 14.4225 0.974109 13.221V8.7185C0.974109 8.44791 0.75764 8.23145 0.487054 8.23145C0.216469 8.23145 0 8.44791 0 8.7185V13.221C0 14.9636 1.41787 16.3779 3.15683 16.3779H13.8432C15.5857 16.3779 17 14.96 17 13.221V8.79066C17 8.52368 16.7835 8.3036 16.5129 8.3036Z" fill="#2F2F2F"/>
<path d="M8.15731 12.5103C8.25112 12.6041 8.37739 12.6546 8.50006 12.6546C8.62272 12.6546 8.749 12.6077 8.8428 12.5103L11.9383 9.41479C12.1295 9.22358 12.1295 8.91691 11.9383 8.7257C11.7471 8.53449 11.4404 8.53449 11.2492 8.7257L8.98711 10.9914V1.10961C8.98711 0.839027 8.77064 0.622559 8.50006 0.622559C8.22947 0.622559 8.013 0.839027 8.013 1.10961V10.9914L5.7473 8.7257C5.55608 8.53449 5.24942 8.53449 5.05821 8.7257C4.86699 8.91691 4.86699 9.22358 5.05821 9.41479L8.15731 12.5103Z" fill="#2F2F2F"/>
</svg>
