<svg width="20" height="20" viewBox="0 0 20 20" fill="none" xmlns="http://www.w3.org/2000/svg">
<path d="M15.2051 13.2307C14.5517 12.5856 13.736 12.5856 13.0867 13.2307C12.5915 13.7218 12.0962 14.2128 11.6093 14.7123C11.4761 14.8496 11.3638 14.8787 11.2014 14.7872C10.881 14.6124 10.5397 14.4709 10.2317 14.2794C8.79592 13.3763 7.59316 12.2152 6.52773 10.9084C5.99918 10.2591 5.5289 9.5641 5.20011 8.78168C5.13352 8.62353 5.14601 8.51949 5.27503 8.39047C5.77028 7.91186 6.25305 7.42077 6.73998 6.92967C7.41836 6.24714 7.41836 5.44807 6.73582 4.76137C6.34877 4.37016 5.96172 3.98727 5.57468 3.59606C5.17514 3.19653 4.77977 2.79283 4.37607 2.39746C3.72267 1.7607 2.90695 1.7607 2.25771 2.40162C1.75829 2.89272 1.27969 3.39629 0.771944 3.87906C0.301659 4.32438 0.0644358 4.86958 0.014494 5.50633C-0.0645804 6.54263 0.18929 7.52065 0.547206 8.47371C1.27969 10.4464 2.39505 12.1985 3.74764 13.805C5.57468 15.9775 7.75547 17.6963 10.3067 18.9365C11.4553 19.4942 12.6456 19.9229 13.9399 19.9936C14.8305 20.0435 15.6046 19.8188 16.2248 19.1238C16.6493 18.6493 17.1279 18.2165 17.5773 17.7629C18.2432 17.0887 18.2474 16.2729 17.5857 15.6071C16.7949 14.8121 16 14.0214 15.2051 13.2307Z" fill="#6B6B6B"/>
<path d="M14.4102 9.91322L15.9459 9.65102C15.7046 8.24017 15.0387 6.96249 14.0273 5.94701C12.9578 4.87742 11.6052 4.20321 10.1152 3.99512L9.89883 5.53915C11.0516 5.70146 12.1004 6.22169 12.9286 7.04989C13.711 7.83231 14.223 8.82282 14.4102 9.91322Z" fill="#6B6B6B"/>
<path d="M16.8116 3.23789C15.0387 1.46496 12.7955 0.34543 10.3192 0L10.1028 1.54403C12.2419 1.84368 14.1814 2.81339 15.7129 4.34077C17.1654 5.79324 18.1184 7.6286 18.4639 9.64708L19.9996 9.38489C19.5959 7.04595 18.493 4.92342 16.8116 3.23789Z" fill="#6B6B6B"/>
</svg>
