<svg width="46" height="46" viewBox="0 0 46 46" fill="none" xmlns="http://www.w3.org/2000/svg">
<g clip-path="url(#clip0)">
<path d="M46 31.1308C46 25.4226 42.7253 20.3282 37.8207 17.8501C37.6684 28.7949 28.7949 37.6684 17.8501 37.8207C20.3282 42.7252 25.4226 46 31.1309 46C33.8072 46 36.4099 45.2872 38.6967 43.9329L45.9351 45.935L43.9329 38.6967C45.2872 36.4099 46 33.8072 46 31.1308Z" fill="#2F2F2F"/>
<path d="M35.1289 17.5645C35.1289 7.87923 27.2497 0 17.5645 0C7.87923 0 0 7.87923 0 17.5645C0 20.7209 0.840179 23.7942 2.43561 26.4923L0.0645752 35.064L8.63658 32.6933C11.3347 34.2887 14.408 35.1289 17.5645 35.1289C27.2497 35.1289 35.1289 27.2497 35.1289 17.5645ZM14.8691 13.4766H12.1738C12.1738 10.504 14.5919 8.08594 17.5645 8.08594C20.537 8.08594 22.9551 10.504 22.9551 13.4766C22.9551 14.9853 22.3163 16.4354 21.2021 17.4546L18.9121 19.5505V21.6523H16.2168V18.3636L19.3824 15.4661C19.9481 14.9485 20.2598 14.242 20.2598 13.4766C20.2598 11.9903 19.0507 10.7812 17.5645 10.7812C16.0782 10.7812 14.8691 11.9903 14.8691 13.4766ZM16.2168 24.3477H18.9121V27.043H16.2168V24.3477Z" fill="#2F2F2F"/>
</g>
<defs>
<clipPath id="clip0">
<rect width="46" height="46" fill="white"/>
</clipPath>
</defs>
</svg>
