<svg width="32" height="28" viewBox="0 0 32 28" fill="none" xmlns="http://www.w3.org/2000/svg">
<path d="M2.77506 0.388769L0.64158 2.3045C0.057343 2.82287 0.0573431 3.67931 0.641581 4.22022L11.4116 13.7763L0.438368 23.5125C-0.146123 24.0311 -0.146123 24.8875 0.438369 25.4282L2.59751 27.344C3.18174 27.8626 4.14701 27.8626 4.75665 27.344L15.7047 17.6301L26.5004 27.1637C27.0847 27.682 28.0499 27.682 28.6596 27.1637L30.8187 25.2479C31.403 24.7296 31.403 23.8731 30.8187 23.3322L20.0484 13.7763L30.8187 4.22022C31.403 3.70185 31.403 2.84541 30.8187 2.3045L28.6596 0.388768C28.0753 -0.129605 27.1101 -0.129605 26.5004 0.388768L15.7301 9.96741L4.96011 0.411306C4.34996 -0.129605 3.3847 -0.129604 2.77506 0.388769Z" fill="#E5E5E5"/>
</svg>
