<svg width="27" height="27" viewBox="0 0 27 27" fill="none" xmlns="http://www.w3.org/2000/svg">
<path d="M20.5272 17.8611C19.6451 16.9903 18.5439 16.9903 17.6674 17.8611C16.9988 18.5241 16.3302 19.1871 15.6729 19.8613C15.4931 20.0467 15.3414 20.086 15.1223 19.9624C14.6897 19.7264 14.2289 19.5354 13.8132 19.277C11.8748 18.0578 10.2511 16.4902 8.81277 14.726C8.09923 13.8495 7.46434 12.9113 7.02048 11.855C6.93059 11.6415 6.94744 11.501 7.12162 11.3269C7.79021 10.6807 8.44195 10.0178 9.09931 9.35479C10.0151 8.43336 10.0151 7.35462 9.09369 6.42758C8.57118 5.89944 8.04866 5.38255 7.52614 4.85441C6.98677 4.31504 6.45302 3.77005 5.90803 3.2363C5.02594 2.37668 3.92472 2.37668 3.04824 3.24192C2.37403 3.9049 1.72791 4.58473 1.04246 5.23647C0.407575 5.83764 0.087324 6.57366 0.0199026 7.43328C-0.0868478 8.83227 0.255877 10.1526 0.739064 11.4392C1.72791 14.1024 3.23365 16.4677 5.05965 18.6365C7.52614 21.5693 10.4702 23.8897 13.9143 25.564C15.465 26.3169 17.0719 26.8956 18.8192 26.9911C20.0216 27.0585 21.0666 26.7551 21.9037 25.8168C22.4768 25.1763 23.1229 24.592 23.7297 23.9796C24.6287 23.0694 24.6343 21.9682 23.741 21.0692C22.6735 19.9961 21.6003 18.9286 20.5272 17.8611Z" fill="white"/>
<path d="M19.4541 13.383L21.5273 13.029C21.2014 11.1244 20.3025 9.39951 18.9372 8.0286C17.4933 6.58466 15.6673 5.67448 13.6559 5.39355L13.3637 7.478C14.92 7.69712 16.3359 8.39942 17.4539 9.51749C18.5102 10.5738 19.2013 11.9109 19.4541 13.383Z" fill="white"/>
<path d="M22.6959 4.37115C20.3025 1.97769 17.2741 0.466331 13.9312 0L13.639 2.08444C16.5269 2.48897 19.1451 3.79807 21.2127 5.86004C23.1735 7.82088 24.4601 10.2986 24.9265 13.0236L26.9997 12.6696C26.4547 9.51203 24.9658 6.64662 22.6959 4.37115Z" fill="white"/>
</svg>
