<svg width="18" height="18" viewBox="0 0 18 18" fill="none" xmlns="http://www.w3.org/2000/svg">
<g clip-path="url(#clip0)">
<path d="M16.8261 3.50782H15.5159C15.6887 3.23431 15.8027 2.92729 15.8353 2.60258C15.9391 1.56488 15.3926 0.634643 14.4622 0.222225C13.607 -0.156865 12.6459 -0.00189639 11.9539 0.625783L10.2994 2.1252C9.97724 1.77279 9.51405 1.55131 9 1.55131C8.48503 1.55131 8.02111 1.77349 7.69883 2.12699L6.04227 0.625608C5.34909 -0.00207214 4.38841 -0.156443 3.53359 0.222436C2.60343 0.634889 2.05682 1.56544 2.16102 2.60311C2.19361 2.92757 2.30759 3.23445 2.48038 3.50782H1.1739C0.525551 3.50782 0 4.03341 0 4.68173V6.4426C0 6.76674 0.262793 7.02956 0.586969 7.02956H17.4131C17.7372 7.02956 18 6.76677 18 6.4426V4.68173C18 4.03341 17.4744 3.50782 16.8261 3.50782ZM7.23913 3.31218V3.50782H4.47785C3.74829 3.50782 3.17412 2.82769 3.35633 2.0681C3.43659 1.73359 3.67805 1.44844 3.99034 1.30409C4.41918 1.10588 4.89421 1.16951 5.25438 1.49551L7.23962 3.29488C7.23952 3.30068 7.23913 3.30638 7.23913 3.31218ZM14.6705 2.44674C14.6268 3.0568 14.0757 3.50789 13.4641 3.50789H10.7609V3.31225C10.7609 3.30532 10.7604 3.29847 10.7604 3.29154C11.2101 2.88387 12.1857 1.99962 12.7149 1.51998C13.0156 1.24742 13.4364 1.12019 13.8253 1.2362C14.3835 1.4027 14.7113 1.87738 14.6705 2.44674Z" fill="white"/>
<path d="M1.17391 8.20166V16.8104C1.17391 17.4587 1.69946 17.9843 2.34781 17.9843H7.82607V8.20166H1.17391Z" fill="white"/>
<path d="M10.1739 8.20166V17.9843H15.6522C16.3005 17.9843 16.8261 17.4587 16.8261 16.8104V8.20166H10.1739Z" fill="white"/>
</g>
<defs>
<clipPath id="clip0">
<rect width="18" height="18" fill="white"/>
</clipPath>
</defs>
</svg>
