<svg width="45" height="45" viewBox="0 0 45 45" fill="none" xmlns="http://www.w3.org/2000/svg">
<path d="M6.56855 19.7783H0V38.4315C0 39.5565 0.907258 40.4638 2.03226 40.4638H42.6774C43.9476 40.4638 45 39.4114 45 38.1412V12.9194C45 11.6856 44.0202 10.7057 42.7863 10.7057H32.3347C31.246 10.7057 30.3387 9.90734 30.1939 8.85493L29.831 6.45976C29.6496 5.40734 28.7423 4.53638 27.6899 4.53638H17.2379C16.1492 4.53638 15.2419 5.37105 15.0968 6.45976L14.7339 8.85493C14.5887 9.90734 13.6452 10.7057 12.5927 10.7057H2.17742C0.979839 10.7057 0 11.6856 0 12.8832V14.6977H6.56855C7.94758 14.6977 9.07258 15.8227 9.07258 17.2017V17.238C9.07258 18.6533 7.94758 19.7783 6.56855 19.7783ZM39.1936 14.7702C40.6089 14.7702 41.7339 15.8952 41.7339 17.3106C41.7339 18.7259 40.6089 19.8509 39.1936 19.8509C37.7782 19.8509 36.6532 18.7259 36.6532 17.3106C36.6532 15.9315 37.7782 14.7702 39.1936 14.7702ZM22.6089 15.6775C28.6334 15.6775 33.496 20.5404 33.496 26.5646C33.496 32.5888 28.6334 37.4517 22.6089 37.4517C16.5847 37.4517 11.7218 32.5888 11.7218 26.5646C11.7218 20.5404 16.621 15.6775 22.6089 15.6775Z" fill="#2F2F2F"/>
<path d="M22.5 32.0082C25.5064 32.0082 27.9436 29.571 27.9436 26.5646C27.9436 23.5583 25.5064 21.1211 22.5 21.1211C19.4936 21.1211 17.0565 23.5583 17.0565 26.5646C17.0565 29.571 19.4936 32.0082 22.5 32.0082Z" fill="#2F2F2F"/>
</svg>
