<svg width="42" height="42" viewBox="0 0 42 42" fill="none" xmlns="http://www.w3.org/2000/svg">
<g clip-path="url(#clip0)">
<path d="M33 31.4695C33.4142 31.4695 33.75 31.8053 33.75 32.2195V35.9695H22.5V31.4695H33Z" fill="#2F2F2F"/>
<path d="M0 19.4695H4.49999V23.9695H0V19.4695Z" fill="#2F2F2F"/>
<path d="M0 25.4695H12.75V29.9695H0V25.4695Z" fill="#2F2F2F"/>
<path d="M0 31.4695H4.49999V35.9695H0V31.4695Z" fill="#2F2F2F"/>
<path d="M6.00002 31.4695H21V35.9695H6.00002V31.4695Z" fill="#2F2F2F"/>
<path d="M14.25 37.4695H29.25V41.9695H14.25V37.4695Z" fill="#2F2F2F"/>
<path d="M25.5 25.4695C25.9142 25.4695 26.25 25.8053 26.25 26.2195V29.9695H14.25V25.4695H15.6555C15.7701 25.6336 15.8983 25.788 16.0388 25.9307C16.6955 26.5952 17.5908 26.9693 18.5251 26.9694C18.8391 26.9688 19.1518 26.9272 19.4551 26.8457L24.5941 25.4695H25.5Z" fill="#2F2F2F"/>
<path d="M32.3542 10.6734L25.656 17.3746C25.4675 17.5633 25.1927 17.637 24.9351 17.5681C24.6775 17.4992 24.4762 17.298 24.4071 17.0404C24.338 16.7829 24.4115 16.508 24.6 16.3194L31.299 9.61816L32.3542 10.6734Z" fill="#2F2F2F"/>
<path d="M31.8338 6.97531L38.175 0.625077C39.0597 -0.191425 40.4311 -0.164054 41.2825 0.687146C42.1338 1.53835 42.1615 2.90974 41.3452 3.7946L34.9964 10.1374C34.8575 10.2771 34.6686 10.3558 34.4714 10.3558C34.2743 10.3558 34.0854 10.2772 33.9464 10.1374L31.8464 8.03739L31.8404 8.03138C31.5489 7.74081 31.5458 7.26948 31.8338 6.97531Z" fill="#2F2F2F"/>
<path d="M20.5672 7.92552H20.5762C20.7279 7.43622 21.1211 7.05966 21.6165 6.92944C22.112 6.79915 22.6396 6.93359 23.0123 7.28506L27.2618 11.5346L23.5403 15.2576C22.6654 16.1356 22.6654 17.5558 23.5403 18.4338C24.4182 19.3082 25.8378 19.3082 26.7158 18.4338L30.4373 14.7108L34.6815 18.955C34.9571 19.2267 35.1124 19.5974 35.1124 19.9844C35.1124 20.3714 34.9572 20.7422 34.6815 21.0138C34.505 21.1909 34.2849 21.3182 34.0433 21.3828L19.0658 25.3945C18.3644 25.5799 17.6172 25.3783 17.1042 24.8653C16.5912 24.3523 16.3897 23.6052 16.575 22.9037C19.7745 10.9488 20.4323 8.49402 20.5672 7.92552Z" fill="#2F2F2F"/>
<path d="M15.9391 19.4695C15.6428 20.5773 15.3631 21.619 15.123 22.516C14.9959 22.9897 14.9686 23.4847 15.0428 23.9695H6.00002V19.4695H15.9391Z" fill="#2F2F2F"/>
<path d="M0.75001 13.4695H10.5C10.9142 13.4695 11.25 13.8053 11.25 14.2195V17.9695H0V14.2195C0 13.8053 0.33578 13.4695 0.75001 13.4695Z" fill="#2F2F2F"/>
<path d="M0 41.2195V37.4695H12.75V41.9695H0.75001C0.33578 41.9695 0 41.6337 0 41.2195H0Z" fill="#2F2F2F"/>
<path d="M42 41.2195C42 41.6337 41.6642 41.9695 41.25 41.9695H30.75V37.4695H41.25C41.6642 37.4695 42 37.8053 42 38.2195V41.2195Z" fill="#2F2F2F"/>
</g>
<defs>
<clipPath id="clip0">
<rect width="42" height="42" fill="white"/>
</clipPath>
</defs>
</svg>
