<svg width="171" height="45" viewBox="0 0 171 45" fill="none" xmlns="http://www.w3.org/2000/svg">
<path d="M1.46317 26.1137C0.973703 25.8579 0.369537 26.0474 0.113733 26.5368C-0.142071 27.0263 0.0473536 27.6305 0.536825 27.8863L1.46317 26.1137ZM170.5 0L159.522 3.57954L168.111 11.2971L170.5 0ZM2.31627 28.795C2.8104 29.0417 3.41095 28.8411 3.65763 28.347C3.90431 27.8529 3.70372 27.2523 3.20958 27.0056L2.31627 28.795ZM6.80784 28.7247C6.30561 28.4949 5.71222 28.7158 5.48247 29.218C5.25271 29.7202 5.47359 30.3136 5.97582 30.5434L6.80784 28.7247ZM9.68519 32.1714C10.1942 32.3858 10.7806 32.1469 10.9949 31.6379C11.2093 31.1289 10.9704 30.5425 10.4614 30.3282L9.68519 32.1714ZM14.1614 31.8247C13.6466 31.6247 13.0672 31.88 12.8673 32.3948C12.6673 32.9097 12.9226 33.4891 13.4374 33.689L14.1614 31.8247ZM17.2285 35.1032C17.7485 35.2894 18.3209 35.0188 18.5071 34.4988C18.6933 33.9789 18.4227 33.4064 17.9028 33.2202L17.2285 35.1032ZM21.6819 34.5191C21.1574 34.3462 20.592 34.6313 20.4192 35.1558C20.2463 35.6804 20.5314 36.2457 21.0559 36.4186L21.6819 34.5191ZM24.9173 37.6383C25.4459 37.7981 26.0041 37.4991 26.1639 36.9705C26.3237 36.4418 26.0248 35.8837 25.4961 35.7239L24.9173 37.6383ZM29.3428 36.836C28.8104 36.6891 28.2597 37.0015 28.1128 37.5339C27.9658 38.0663 28.2783 38.617 28.8107 38.7639L29.3428 36.836ZM32.7163 39.7918C33.252 39.9259 33.7951 39.6004 33.9293 39.0647C34.0634 38.5289 33.7379 37.9859 33.2022 37.8517L32.7163 39.7918ZM37.0821 38.7744C36.5433 38.653 36.0081 38.9914 35.8867 39.5302C35.7653 40.069 36.1037 40.6041 36.6425 40.7255L37.0821 38.7744ZM40.5964 41.567C41.1379 41.6755 41.6648 41.3245 41.7734 40.783C41.8819 40.2414 41.5308 39.7145 40.9893 39.606L40.5964 41.567ZM44.9214 40.3451C44.3774 40.2495 43.859 40.6131 43.7635 41.1571C43.668 41.701 44.0316 42.2194 44.5755 42.3149L44.9214 40.3451ZM48.5715 42.9669C49.1176 43.0493 49.6271 42.6733 49.7094 42.1272C49.7918 41.5811 49.4158 41.0716 48.8697 40.9893L48.5715 42.9669ZM52.8182 41.5356C52.2703 41.4666 51.7701 41.8548 51.7011 42.4028C51.6321 42.9508 52.0203 43.4509 52.5683 43.5199L52.8182 41.5356ZM56.5856 43.9757C57.1351 44.0311 57.6255 43.6306 57.681 43.0812C57.7364 42.5317 57.3359 42.0413 56.7864 41.9858L56.5856 43.9757ZM60.7711 42.3375C60.2204 42.2959 59.7402 42.7086 59.6986 43.2593C59.6569 43.81 60.0696 44.2902 60.6203 44.3318L60.7711 42.3375ZM64.6557 44.5852C65.2073 44.6128 65.6768 44.1879 65.7043 43.6363C65.7319 43.0848 65.307 42.6153 64.7555 42.5877L64.6557 44.5852ZM68.7413 42.7351C68.1892 42.7219 67.7309 43.1588 67.7177 43.7109C67.7044 44.263 68.1413 44.7213 68.6934 44.7345L68.7413 42.7351ZM72.7416 44.7779C73.2939 44.7765 73.7404 44.3276 73.739 43.7753C73.7376 43.223 73.2887 42.7765 72.7364 42.7779L72.7416 44.7779ZM76.732 42.7137C76.1799 42.7301 75.7457 43.1908 75.7621 43.7429C75.7784 44.2949 76.2392 44.7292 76.7913 44.7128L76.732 42.7137ZM80.8277 44.5377C81.379 44.5061 81.8004 44.0335 81.7689 43.4821C81.7373 42.9308 81.2647 42.5094 80.7134 42.5409L80.8277 44.5377ZM84.6952 42.2569C84.145 42.304 83.737 42.7882 83.7841 43.3385C83.8312 43.8888 84.3154 44.2967 84.8657 44.2497L84.6952 42.2569ZM88.8991 43.8464C89.4478 43.7836 89.8416 43.2878 89.7788 42.7391C89.7159 42.1904 89.2202 41.7966 88.6715 41.8594L88.8991 43.8464ZM92.6212 41.3487C92.0745 41.4275 91.6953 41.9346 91.7742 42.4812C91.853 43.0278 92.3601 43.407 92.9067 43.3282L92.6212 41.3487ZM96.9056 42.6907C97.4497 42.5956 97.8136 42.0774 97.7185 41.5334C97.6234 40.9894 97.1053 40.6254 96.5613 40.7205L96.9056 42.6907ZM100.485 39.9733C99.944 40.0849 99.596 40.6138 99.7075 41.1547C99.8191 41.6956 100.348 42.0437 100.889 41.9321L100.485 39.9733ZM104.835 41.0549C105.372 40.9268 105.704 40.3874 105.575 39.8502C105.447 39.313 104.908 38.9814 104.371 39.1095L104.835 41.0549ZM108.236 38.1234C107.703 38.2683 107.389 38.8178 107.534 39.3508C107.678 39.8837 108.228 40.1983 108.761 40.0534L108.236 38.1234ZM112.655 38.9281C113.184 38.7664 113.481 38.2072 113.319 37.6791C113.157 37.151 112.598 36.854 112.07 37.0158L112.655 38.9281ZM115.856 35.7898C115.333 35.9683 115.054 36.5367 115.233 37.0593C115.412 37.582 115.98 37.8609 116.503 37.6824L115.856 35.7898ZM120.319 36.3093C120.836 36.1139 121.096 35.5368 120.901 35.0202C120.706 34.5036 120.128 34.2432 119.612 34.4386L120.319 36.3093ZM123.315 32.9689C122.805 33.181 122.563 33.7663 122.775 34.2763C122.987 34.7862 123.573 35.0277 124.083 34.8156L123.315 32.9689ZM127.794 33.2006C128.296 32.9719 128.519 32.379 128.29 31.8763C128.061 31.3736 127.468 31.1514 126.966 31.38L127.794 33.2006ZM130.578 29.6646C130.083 29.9097 129.881 30.5096 130.126 31.0045C130.371 31.4994 130.971 31.702 131.466 31.4569L130.578 29.6646ZM135.053 29.6067C135.54 29.3456 135.723 28.7394 135.462 28.2527C135.2 27.7661 134.594 27.5833 134.108 27.8444L135.053 29.6067ZM137.592 25.9004C137.114 26.1773 136.951 26.7892 137.228 27.267C137.505 27.7449 138.117 27.9077 138.595 27.6307L137.592 25.9004ZM142.066 25.5424C142.535 25.25 142.678 24.6331 142.385 24.1646C142.093 23.696 141.476 23.5532 141.007 23.8456L142.066 25.5424ZM144.349 21.6845C143.89 21.9918 143.767 22.6129 144.075 23.0718C144.382 23.5307 145.003 23.6535 145.462 23.3461L144.349 21.6845ZM148.804 21.0292C149.252 20.7072 149.355 20.0825 149.033 19.6337C148.711 19.185 148.087 19.0822 147.638 19.4041L148.804 21.0292ZM150.825 17.0402C150.387 17.3761 150.304 18.0038 150.64 18.4422C150.976 18.8806 151.603 18.9637 152.042 18.6278L150.825 17.0402ZM155.23 16.1045C155.658 15.755 155.721 15.1251 155.372 14.6974C155.022 14.2697 154.392 14.2063 153.965 14.5558L155.23 16.1045ZM157.001 11.9961C156.584 12.3584 156.54 12.9901 156.903 13.4069C157.265 13.8237 157.897 13.8679 158.313 13.5055L157.001 11.9961ZM161.335 10.7977C161.741 10.4229 161.766 9.79027 161.391 9.38455C161.016 8.97884 160.384 8.9537 159.978 9.32842L161.335 10.7977ZM162.863 6.58438C162.468 6.97084 162.462 7.60397 162.848 7.99852C163.234 8.39306 163.868 8.39961 164.262 8.01315L162.863 6.58438ZM167.114 5.13775C167.497 4.7401 167.486 4.10705 167.088 3.72378C166.69 3.34051 166.057 3.35216 165.674 3.7498L167.114 5.13775ZM168.401 0.839441C168.029 1.24767 168.059 1.88015 168.467 2.25213C168.875 2.62411 169.508 2.59473 169.88 2.18651L168.401 0.839441ZM0.536825 27.8863C1.11607 28.189 1.70935 28.4921 2.31627 28.795L3.20958 27.0056C2.6135 26.7081 2.03124 26.4106 1.46317 26.1137L0.536825 27.8863ZM5.97582 30.5434C7.17023 31.0898 8.40743 31.6333 9.68519 32.1714L10.4614 30.3282C9.20202 29.7978 7.98343 29.2625 6.80784 28.7247L5.97582 30.5434ZM13.4374 33.689C14.6697 34.1676 15.9339 34.6396 17.2285 35.1032L17.9028 33.2202C16.6248 32.7626 15.3771 32.2968 14.1614 31.8247L13.4374 33.689ZM21.0559 36.4186C22.3184 36.8347 23.6059 37.2418 24.9173 37.6383L25.4961 35.7239C24.2006 35.3322 22.9288 34.9301 21.6819 34.5191L21.0559 36.4186ZM28.8107 38.7639C30.0928 39.1178 31.3951 39.4609 32.7163 39.7918L33.2022 37.8517C31.8966 37.5247 30.6097 37.1857 29.3428 36.836L28.8107 38.7639ZM36.6425 40.7255C37.9444 41.0188 39.2627 41.2997 40.5964 41.567L40.9893 39.606C39.6714 39.3419 38.3686 39.0643 37.0821 38.7744L36.6425 40.7255ZM44.5755 42.3149C45.8943 42.5465 47.2266 42.7642 48.5715 42.9669L48.8697 40.9893C47.5409 40.7889 46.2245 40.5738 44.9214 40.3451L44.5755 42.3149ZM52.5683 43.5199C53.8967 43.6872 55.2361 43.8395 56.5856 43.9757L56.7864 41.9858C55.4535 41.8513 54.1305 41.7009 52.8182 41.5356L52.5683 43.5199ZM60.6203 44.3318C61.9568 44.4328 63.3022 44.5176 64.6557 44.5852L64.7555 42.5877C63.4192 42.521 62.0908 42.4373 60.7711 42.3375L60.6203 44.3318ZM68.6934 44.7345C70.036 44.7667 71.3856 44.7814 72.7416 44.7779L72.7364 42.7779C71.3984 42.7814 70.0664 42.7668 68.7413 42.7351L68.6934 44.7345ZM76.7913 44.7128C78.1316 44.6731 79.4773 44.615 80.8277 44.5377L80.7134 42.5409C79.3816 42.6172 78.0542 42.6745 76.732 42.7137L76.7913 44.7128ZM84.8657 44.2497C86.2065 44.135 87.5512 44.0009 88.8991 43.8464L88.6715 41.8594C87.3428 42.0116 86.0172 42.1439 84.6952 42.2569L84.8657 44.2497ZM92.9067 43.3282C94.2374 43.1363 95.5706 42.924 96.9056 42.6907L96.5613 40.7205C95.246 40.9504 93.9325 41.1596 92.6212 41.3487L92.9067 43.3282ZM100.889 41.9321C102.203 41.661 103.519 41.3689 104.835 41.0549L104.371 39.1095C103.075 39.4186 101.779 39.7063 100.485 39.9733L100.889 41.9321ZM108.761 40.0534C110.059 39.7004 111.358 39.3255 112.655 38.9281L112.07 37.0158C110.792 37.4069 109.514 37.7759 108.236 38.1234L108.761 40.0534ZM116.503 37.6824C117.776 37.2473 119.049 36.7898 120.319 36.3093L119.612 34.4386C118.362 34.9114 117.109 35.3616 115.856 35.7898L116.503 37.6824ZM124.083 34.8156C125.322 34.3001 126.559 33.762 127.794 33.2006L126.966 31.38C125.751 31.9324 124.534 32.4618 123.315 32.9689L124.083 34.8156ZM131.466 31.4569C132.665 30.8631 133.861 30.2466 135.053 29.6067L134.108 27.8444C132.934 28.4739 131.758 29.0804 130.578 29.6646L131.466 31.4569ZM138.595 27.6307C139.756 26.9577 140.913 26.2618 142.066 25.5424L141.007 23.8456C139.873 24.5535 138.734 25.2382 137.592 25.9004L138.595 27.6307ZM145.462 23.3461C146.581 22.5969 147.695 21.8247 148.804 21.0292L147.638 19.4041C146.546 20.1872 145.45 20.9471 144.349 21.6845L145.462 23.3461ZM152.042 18.6278C153.11 17.8094 154.173 16.9684 155.23 16.1045L153.965 14.5558C152.923 15.4065 151.877 16.2345 150.825 17.0402L152.042 18.6278ZM158.313 13.5055C159.326 12.625 160.334 11.7225 161.335 10.7977L159.978 9.32842C158.991 10.2397 157.999 11.1288 157.001 11.9961L158.313 13.5055ZM164.262 8.01315C165.219 7.07608 166.17 6.11774 167.114 5.13775L165.674 3.7498C164.743 4.71604 163.806 5.66077 162.863 6.58438L164.262 8.01315Z" fill="#2F2F2F"/>
</svg>
