<svg width="35" height="33" viewBox="0 0 35 33" fill="none" xmlns="http://www.w3.org/2000/svg">
<path d="M34.534 26.9553L20.4766 2.60732C19.8553 1.53126 18.7426 0.888672 17.4999 0.888672C16.2573 0.888672 15.1445 1.53112 14.5233 2.60732L0.466046 26.9553C-0.155349 28.0313 -0.155349 29.3162 0.466046 30.3924C1.08744 31.4686 2.20006 32.1111 3.44271 32.1111H31.5576C32.8001 32.1111 33.9128 31.4686 34.5341 30.3926C35.1553 29.3164 35.1552 28.0315 34.534 26.9553ZM17.5001 28.15C16.2664 28.15 15.2627 27.1463 15.2627 25.9126C15.2627 24.6791 16.2664 23.6754 17.5001 23.6754C18.7338 23.6754 19.7374 24.6791 19.7374 25.9126C19.7373 27.1465 18.7336 28.15 17.5001 28.15ZM19.7525 18.5863C19.7525 19.8283 18.742 20.8388 17.5001 20.8388C16.2581 20.8388 15.2477 19.8283 15.2477 18.5863V8.24868C15.2477 7.65943 15.7254 7.18172 16.3146 7.18172H18.6857C19.2751 7.18172 19.7526 7.65943 19.7526 8.24868V18.5863H19.7525Z" fill="#E7C200"/>
</svg>
