<svg width="11" height="19" viewBox="0 0 11 19" fill="none" xmlns="http://www.w3.org/2000/svg">
<path d="M0.497764 8.93979L8.26247 1.17523C8.44206 0.995499 8.68179 0.896484 8.93741 0.896484C9.19304 0.896484 9.43277 0.995499 9.61236 1.17523L10.1842 1.7469C10.5563 2.11941 10.5563 2.72485 10.1842 3.09679L3.66396 9.617L10.1914 16.1445C10.371 16.3242 10.4702 16.5638 10.4702 16.8193C10.4702 17.075 10.371 17.3146 10.1914 17.4945L9.61959 18.066C9.43986 18.2457 9.20027 18.3448 8.94465 18.3448C8.68903 18.3448 8.44929 18.2457 8.2697 18.066L0.497764 10.2944C0.31775 10.1141 0.218878 9.87334 0.219445 9.61743C0.218878 9.36053 0.31775 9.11995 0.497764 8.93979Z" fill="#2F2F2F"/>
</svg>
