<svg width="11" height="19" viewBox="0 0 11 19" fill="none" xmlns="http://www.w3.org/2000/svg">
<path d="M10.5022 8.93979L2.73749 1.17523C2.5579 0.995499 2.31816 0.896484 2.06254 0.896484C1.80692 0.896484 1.56718 0.995499 1.3876 1.17523L0.81578 1.7469C0.443695 2.11941 0.443695 2.72485 0.81578 3.09679L7.33599 9.617L0.808545 16.1445C0.628957 16.3242 0.5298 16.5638 0.5298 16.8193C0.5298 17.075 0.628957 17.3146 0.808545 17.4945L1.38036 18.066C1.56009 18.2457 1.79968 18.3448 2.05531 18.3448C2.31093 18.3448 2.55066 18.2457 2.73025 18.066L10.5022 10.2944C10.6822 10.1141 10.7811 9.87334 10.7805 9.61743C10.7811 9.36053 10.6822 9.11995 10.5022 8.93979Z" fill="#2F2F2F"/>
</svg>
