<svg width="37" height="36" viewBox="0 0 37 36" fill="none" xmlns="http://www.w3.org/2000/svg">
<path d="M28.1297 24.4762C26.9209 23.2828 25.4118 23.2828 24.2107 24.4762C23.2945 25.3847 22.3783 26.2932 21.4774 27.2172C21.2311 27.4712 21.0232 27.5251 20.7229 27.3557C20.1301 27.0324 19.4987 26.7706 18.929 26.4164C16.2727 24.7457 14.0476 22.5976 12.0765 20.18C11.0987 18.9789 10.2287 17.6931 9.62045 16.2456C9.49726 15.953 9.52036 15.7605 9.75904 15.5218C10.6753 14.6364 11.5684 13.7279 12.4692 12.8194C13.7242 11.5567 13.7242 10.0784 12.4615 8.80802C11.7455 8.08428 11.0294 7.37594 10.3134 6.6522C9.57425 5.91306 8.84281 5.16622 8.09598 4.43479C6.88718 3.25679 5.37811 3.25679 4.17701 4.44249C3.25309 5.35101 2.36766 6.28263 1.42834 7.17575C0.558313 7.99958 0.11945 9.0082 0.0270581 10.1862C-0.11923 12.1033 0.350431 13.9127 1.01257 15.6758C2.36766 19.3253 4.43109 22.5668 6.93338 25.5387C10.3134 29.5578 14.3478 32.7376 19.0676 35.032C21.1926 36.0637 23.3946 36.8567 25.7891 36.9876C27.4367 37.08 28.8688 36.6643 30.016 35.3785C30.8014 34.5007 31.6868 33.7 32.5183 32.8608C33.7502 31.6135 33.7579 30.1044 32.5337 28.8725C31.0708 27.4019 29.6003 25.9391 28.1297 24.4762Z" fill="white"/>
<path d="M25.3461 17.9485L28.1872 17.4634C27.7406 14.8533 26.5087 12.4896 24.6378 10.611C22.659 8.63226 20.1567 7.38497 17.4004 7L17 9.85646C19.1327 10.1567 21.073 11.1192 22.6051 12.6513C24.0526 14.0988 24.9996 15.9312 25.3461 17.9485Z" fill="white"/>
<path d="M31.1018 5.99009C27.8219 2.71017 23.6719 0.639046 19.0908 0L18.6904 2.85646C22.6479 3.41081 26.2358 5.20476 29.0692 8.03042C31.7562 10.7175 33.5194 14.1129 34.1584 17.8471L36.9995 17.362C36.2526 13.035 34.2123 9.10833 31.1018 5.99009Z" fill="white"/>
</svg>
