<svg width="42" height="42" viewBox="0 0 42 42" fill="none" xmlns="http://www.w3.org/2000/svg">
<g opacity="0.5" clip-path="url(#clip0)">
<path d="M31.0635 0H2.00017C1.10186 0 0.371063 0.730471 0.371063 1.62836V40.3716C0.371063 41.2695 1.10186 42 2.00017 42H31.0635C31.9617 42 32.6925 41.2695 32.6925 40.3716V13.7528C32.6925 13.4116 32.416 13.1351 32.0749 13.1351C31.7338 13.1351 31.4572 13.4116 31.4572 13.7528V40.3716C31.4572 40.5884 31.2806 40.7647 31.0635 40.7647H2.00017C1.783 40.7647 1.60636 40.5883 1.60636 40.3716V1.62836C1.60636 1.41161 1.783 1.23529 2.00017 1.23529H31.0635C31.2806 1.23529 31.4572 1.41169 31.4572 1.62836V10.6515C31.4572 10.9927 31.7338 11.2692 32.0749 11.2692C32.416 11.2692 32.6925 10.9927 32.6925 10.6515V1.62836C32.6926 0.730471 31.9618 0 31.0635 0V0Z" fill="#2F2F2F"/>
<path d="M16.5318 15.3396C17.309 15.8833 18.2535 16.2036 19.272 16.2036C21.9136 16.2036 24.0627 14.0557 24.0627 11.4156C24.0627 8.77557 21.9136 6.62781 19.272 6.62781C18.2535 6.62781 17.309 6.94808 16.5318 7.49177C15.7546 6.94808 14.8101 6.62781 13.7916 6.62781C11.15 6.62781 9.00089 8.77557 9.00089 11.4156C9.00089 14.0557 11.15 16.2036 13.7916 16.2036C14.8101 16.2036 15.7546 15.8833 16.5318 15.3396ZM16.5318 9.15448C17.0408 9.76924 17.3471 10.5574 17.3471 11.4156C17.3471 12.2739 17.0408 13.0621 16.5318 13.6769C16.0228 13.0621 15.7165 12.274 15.7165 11.4156C15.7165 10.5574 16.0228 9.76924 16.5318 9.15448ZM22.8274 11.4156C22.8274 13.3746 21.2324 14.9683 19.272 14.9683C18.6153 14.9683 18.0001 14.7887 17.4715 14.4773C18.1645 13.6467 18.5823 12.5791 18.5823 11.4156C18.5823 10.2522 18.1645 9.18462 17.4715 8.35409C18 8.04263 18.6153 7.8631 19.2719 7.8631C21.2325 7.8631 22.8274 9.4568 22.8274 11.4156ZM10.2362 11.4156C10.2362 9.4568 11.8312 7.8631 13.7916 7.8631C14.4483 7.8631 15.0635 8.04263 15.592 8.35409C14.899 9.18462 14.4812 10.2522 14.4812 11.4156C14.4812 12.5791 14.899 13.6467 15.592 14.4773C15.0635 14.7887 14.4483 14.9683 13.7916 14.9683C11.8312 14.9683 10.2362 13.3746 10.2362 11.4156Z" fill="#2F2F2F"/>
<path d="M7.80875 18.6788C7.80875 19.02 8.08529 19.2965 8.42639 19.2965H24.6373C24.9784 19.2965 25.2549 19.02 25.2549 18.6788C25.2549 18.3376 24.9784 18.0612 24.6373 18.0612H8.42639C8.08529 18.0612 7.80875 18.3377 7.80875 18.6788Z" fill="#2F2F2F"/>
<path d="M8.42639 22.3896H24.6373C24.9784 22.3896 25.2549 22.1131 25.2549 21.7719C25.2549 21.4308 24.9784 21.1543 24.6373 21.1543H8.42639C8.08529 21.1543 7.80875 21.4308 7.80875 21.7719C7.80875 22.1131 8.08529 22.3896 8.42639 22.3896Z" fill="#2F2F2F"/>
<path d="M8.42639 25.4827H24.6373C24.9784 25.4827 25.2549 25.2063 25.2549 24.8651C25.2549 24.5239 24.9784 24.2474 24.6373 24.2474H8.42639C8.08529 24.2474 7.80875 24.5239 7.80875 24.8651C7.80875 25.2063 8.08529 25.4827 8.42639 25.4827Z" fill="#2F2F2F"/>
<path d="M8.42639 28.5754H24.6373C24.9784 28.5754 25.2549 28.2989 25.2549 27.9577C25.2549 27.6165 24.9784 27.3401 24.6373 27.3401H8.42639C8.08529 27.3401 7.80875 27.6165 7.80875 27.9577C7.80875 28.2989 8.08529 28.5754 8.42639 28.5754Z" fill="#2F2F2F"/>
<path d="M25.2549 31.0509C25.2549 30.7097 24.9784 30.4332 24.6373 30.4332H8.42639C8.08529 30.4332 7.80875 30.7097 7.80875 31.0509C7.80875 31.3921 8.08529 31.6685 8.42639 31.6685H24.6373C24.9784 31.6685 25.2549 31.392 25.2549 31.0509Z" fill="#2F2F2F"/>
<path d="M18.0836 34.7614H24.6376C24.9787 34.7614 25.2553 34.4849 25.2553 34.1438C25.2553 33.8026 24.9787 33.5261 24.6376 33.5261H18.0836C17.7425 33.5261 17.4659 33.8026 17.4659 34.1438C17.4659 34.4849 17.7425 34.7614 18.0836 34.7614Z" fill="#2F2F2F"/>
<path d="M8.42609 33.5261C8.08498 33.5261 7.80844 33.8026 7.80844 34.1438C7.80844 34.4849 8.08498 34.7614 8.42609 34.7614H14.9801C15.3212 34.7614 15.5977 34.4849 15.5977 34.1438C15.5977 33.8026 15.3212 33.5261 14.9801 33.5261H8.42609Z" fill="#2F2F2F"/>
<path d="M41.2148 31.2682L40.5159 30.621C40.9228 30.4033 41.2004 29.9745 41.2004 29.4819V27.7241C41.2004 27.3829 40.9239 27.1064 40.5828 27.1064C40.2417 27.1064 39.9651 27.3829 39.9651 27.7241V29.4819C39.9651 29.5129 39.9397 29.5381 39.9085 29.5381H36.1999C36.1686 29.5381 36.1432 29.5129 36.1432 29.4819V22.007H39.965V24.6228C39.965 24.9639 40.2416 25.2404 40.5827 25.2404C40.9238 25.2404 41.2003 24.9639 41.2003 24.6228V8.18774C41.2003 7.34815 40.8729 6.55855 40.2788 5.96486C39.6852 5.37052 38.8952 5.04333 38.0541 5.04333C36.3193 5.04333 34.9079 6.45396 34.9079 8.18782V29.4819C34.9079 29.9747 35.1857 30.4035 35.5928 30.6212L34.8944 31.2681C34.4101 31.7166 34.3413 32.4544 34.7342 32.9844L37.016 36.0648C37.2622 36.3969 37.6406 36.5875 38.0541 36.5875C38.4676 36.5875 38.846 36.397 39.0923 36.0646L41.3754 32.9836C41.7671 32.453 41.6981 31.7156 41.2148 31.2682ZM39.9651 17.3185H36.1433V9.49179H39.9651V17.3185ZM36.1432 20.7717V18.5537H39.965V20.7717H36.1432ZM38.0542 6.27855C38.565 6.27855 39.0447 6.4771 39.4053 6.83814C39.7663 7.19892 39.9651 7.67822 39.9651 8.18774V8.2565H36.1433V8.18774C36.1432 7.13502 37.0005 6.27855 38.0542 6.27855ZM40.3823 32.249L38.6718 34.5574V33.0042C38.6718 32.663 38.3952 32.3866 38.0541 32.3866C37.713 32.3866 37.4365 32.663 37.4365 33.0042V34.5571L35.7267 32.2489C35.7096 32.226 35.7127 32.194 35.7337 32.1745L37.2461 30.7733H38.8622L40.3755 32.1747C40.3964 32.1939 40.399 32.2263 40.3823 32.249Z" fill="#2F2F2F"/>
<path d="M22.0325 38.4649H25.5554C26.1025 38.4649 26.5639 38.0714 26.6526 37.5293C26.7887 36.6974 27.4383 36.0194 28.2324 35.8804C28.7672 35.7868 29.1553 35.3263 29.1553 34.7855V7.13258C29.1553 6.58658 28.7629 6.12541 28.2224 6.03589C27.4171 5.90256 26.7863 5.27248 26.6526 4.46805C26.5627 3.92741 26.1017 3.53491 25.5563 3.53491H7.50762C6.9622 3.53491 6.50118 3.92724 6.41134 4.46781C6.27784 5.27215 5.64727 5.90223 4.8421 6.03581C4.30121 6.12557 3.90863 6.58683 3.90863 7.13258V34.7854C3.90863 35.3262 4.29676 35.7867 4.83156 35.8804C5.62569 36.0194 6.27529 36.6974 6.41134 37.5292C6.50003 38.0714 6.96145 38.4648 7.50844 38.4648H18.929C19.2701 38.4648 19.5466 38.1884 19.5466 37.8472C19.5466 37.506 19.2701 37.2295 18.929 37.2295H7.61237C7.36424 35.9676 6.36909 34.941 5.14392 34.6826V7.23627C6.38951 6.98847 7.36375 6.01489 7.61163 4.77021H25.4521C25.7 6.01489 26.6743 6.98855 27.9198 7.23627V34.6827C26.6947 34.9411 25.6995 35.9677 25.4513 37.2296H22.0323C21.6912 37.2296 21.4146 37.5061 21.4146 37.8473C21.4146 38.1885 21.6913 38.4649 22.0325 38.4649Z" fill="#2F2F2F"/>
</g>
<defs>
<clipPath id="clip0">
<rect width="42" height="42" fill="white"/>
</clipPath>
</defs>
</svg>
