<svg width="37" height="37" viewBox="0 0 37 37" fill="none" xmlns="http://www.w3.org/2000/svg">
<g clip-path="url(#clip0)">
<path d="M35.6973 21.4182C36.8011 12.1266 35.167 6.26056 32.2193 3.60736L32.2208 3.60581C27.4632 -0.925145 11.396 -1.59577 5.70417 3.80931C3.14808 6.45327 2.24775 10.3336 2.14908 15.1375C2.05042 19.9429 1.93325 28.9446 10.3215 31.3867H10.3292L10.3215 35.1159C10.3215 35.1159 10.2644 36.6268 11.2295 36.9305C12.3333 37.2882 12.8328 36.5867 16.2661 32.4859C22.0073 32.9838 26.4165 31.843 26.9175 31.6765C28.0768 31.288 34.6366 30.42 35.6973 21.4182ZM16.8319 29.8619C16.8319 29.8619 13.1982 34.3929 12.0682 35.5692C11.6982 35.9515 11.2927 35.9161 11.2989 35.1576C11.2989 34.6596 11.3266 28.9662 11.3266 28.9662C4.21492 26.9282 4.63425 19.263 4.71133 15.2531C4.78842 11.2417 5.52225 7.9564 7.68675 5.74411C12.6802 1.06206 26.7664 2.10886 30.3554 5.48202C34.743 9.37165 33.1813 20.3606 33.1905 20.7353C32.2887 28.2494 26.973 28.7257 25.9956 29.051C25.5778 29.1898 21.7005 30.1872 16.8319 29.8619Z" fill="white"/>
<path d="M18.8424 6.62451C18.2488 6.62451 18.2488 7.54951 18.8424 7.55722C23.4473 7.59268 27.2398 10.8024 27.2815 16.6901C27.2815 17.3113 28.191 17.3036 28.1833 16.6823H28.1818C28.1325 10.3384 23.9915 6.65997 18.8424 6.62451Z" fill="white"/>
<path d="M24.8995 15.7143C24.8856 16.3278 25.7937 16.3571 25.8014 15.7358C25.8769 12.2378 23.7202 9.35643 19.6671 9.05272C19.0736 9.00956 19.0119 9.94226 19.6039 9.98543C23.1189 10.2521 24.9704 12.651 24.8995 15.7143Z" fill="white"/>
<path d="M23.9282 19.6935C23.1667 19.2526 22.3912 19.527 22.0705 19.9602L21.3999 20.8282C21.0592 21.2691 20.4225 21.2105 20.4225 21.2105C15.7759 19.9818 14.5333 15.1194 14.5333 15.1194C14.5333 15.1194 14.4763 14.4611 14.9018 14.108L15.7405 13.4143C16.1598 13.0813 16.425 12.2796 15.9979 11.4918C14.8571 9.43062 14.0909 8.71991 13.7008 8.17416C13.2908 7.66078 12.6741 7.54516 12.0328 7.89203H12.0189C10.6853 8.67212 9.22538 10.1321 9.6925 11.6352C10.4895 13.22 11.9541 18.2721 16.6223 22.0892C18.8161 23.8945 22.2879 25.7445 23.7617 26.1716L23.7756 26.1932C25.2279 26.6772 26.64 25.1602 27.3939 23.7866V23.7758C27.7285 23.1114 27.6175 22.4824 27.1287 22.0707C26.2623 21.2259 24.955 20.2932 23.9282 19.6935Z" fill="white"/>
<path d="M20.3021 12.4938C21.7836 12.5801 22.502 13.354 22.5791 14.9435C22.6069 15.5648 23.5088 15.5216 23.481 14.9003C23.3823 12.8252 22.3001 11.669 20.3514 11.561C19.7579 11.5256 19.7024 12.4583 20.3021 12.4938Z" fill="white"/>
</g>
<defs>
<clipPath id="clip0">
<rect width="37" height="37" fill="white"/>
</clipPath>
</defs>
</svg>
