<svg width="31" height="31" viewBox="0 0 31 31" fill="none" xmlns="http://www.w3.org/2000/svg">
<g clip-path="url(#clip0)">
<path d="M29.9085 17.9451C30.8334 10.1602 29.4642 5.24543 26.9945 3.02247L26.9958 3.02118C23.0097 -0.775029 9.54798 -1.3369 4.77915 3.19168C2.63756 5.40689 1.88323 8.65801 1.80056 12.6828C1.7179 16.709 1.61973 24.251 8.64769 26.297H8.65415L8.64769 29.4215C8.64769 29.4215 8.5999 30.6874 9.40848 30.9418C10.3333 31.2415 10.7518 30.6538 13.6284 27.218C18.4385 27.6352 22.1327 26.6793 22.5525 26.5398C23.5238 26.2143 29.0199 25.4871 29.9085 17.9451ZM14.1024 25.0195C14.1024 25.0195 11.0579 28.8158 10.1111 29.8013C9.80115 30.1216 9.46144 30.0919 9.46661 29.4564C9.46661 29.0392 9.48986 24.2691 9.48986 24.2691C3.5314 22.5615 3.88273 16.1393 3.94731 12.7797C4.0119 9.4188 4.62673 6.66626 6.44023 4.81272C10.6239 0.889929 22.4259 1.76697 25.4329 4.59314C29.109 7.85201 27.8005 17.059 27.8083 17.3729C27.0526 23.6685 22.599 24.0676 21.7801 24.3401C21.43 24.4564 18.1815 25.2921 14.1024 25.0195Z" fill="white"/>
<path d="M15.787 5.55029C15.2897 5.55029 15.2897 6.32529 15.787 6.33175C19.6452 6.36146 22.8227 9.05071 22.8576 13.9836C22.8576 14.5041 23.6197 14.4977 23.6132 13.9771H23.6119C23.5706 8.66192 20.1012 5.58 15.787 5.55029Z" fill="white"/>
<path d="M20.862 13.166C20.8504 13.6801 21.6112 13.7046 21.6177 13.1841C21.681 10.2533 19.8739 7.83917 16.4781 7.58471C15.9808 7.54855 15.9292 8.33001 16.4252 8.36617C19.3702 8.58963 20.9215 10.5995 20.862 13.166Z" fill="white"/>
<path d="M20.0487 16.5C19.4106 16.1306 18.7609 16.3605 18.4922 16.7234L17.9303 17.4506C17.6449 17.8201 17.1114 17.771 17.1114 17.771C13.2183 16.7415 12.1773 12.6676 12.1773 12.6676C12.1773 12.6676 12.1295 12.116 12.486 11.8203L13.1886 11.239C13.54 10.96 13.7621 10.2883 13.4043 9.6283C12.4485 7.90134 11.8066 7.30588 11.4798 6.84863C11.1362 6.41851 10.6195 6.32163 10.0822 6.61226H10.0706C8.95327 7.26584 7.73006 8.48905 8.12143 9.74842C8.78922 11.0763 10.0163 15.3091 13.9275 18.5072C15.7655 20.0198 18.6743 21.5698 19.9092 21.9276L19.9208 21.9456C21.1376 22.3512 22.3207 21.0802 22.9523 19.9293V19.9203C23.2326 19.3636 23.1396 18.8366 22.7302 18.4917C22.0043 17.7839 20.9089 17.0024 20.0487 16.5Z" fill="white"/>
<path d="M17.0102 10.4678C18.2515 10.5402 18.8534 11.1886 18.918 12.5203C18.9413 13.0408 19.6969 13.0047 19.6736 12.4841C19.591 10.7455 18.6842 9.77679 17.0516 9.68637C16.5543 9.65666 16.5078 10.4381 17.0102 10.4678Z" fill="white"/>
</g>
<defs>
<clipPath id="clip0">
<rect width="31" height="31" fill="white"/>
</clipPath>
</defs>
</svg>
