<svg width="34" height="36" viewBox="0 0 34 36" fill="none" xmlns="http://www.w3.org/2000/svg">
<path d="M29.9786 11.7842L25.5289 12.3252L25.7993 14.5501L30.2491 14.0092L29.9786 11.7842Z" fill="white"/>
<path d="M22.4803 26.5344C22.4721 26.4703 22.4595 26.4099 22.4377 26.354C21.7525 24.4169 19.8042 23.1534 17.6733 23.4243L16.5537 23.5671L23.2152 15.0617C23.9853 14.0784 23.8203 12.6512 22.8484 11.89C21.8766 11.1288 20.4513 11.3105 19.6812 12.2938L16.6007 16.2269C16.5919 15.5739 16.3104 14.9323 15.76 14.5012C15.3774 14.2016 14.9255 14.0524 14.472 14.0362L8.9214 13.2843C8.15278 13.1827 7.34972 13.4782 6.83444 14.1361L4.5318 17.0761C2.02892 20.2718 2.56043 24.8676 5.71986 27.3421C7.25009 28.5406 9.11519 29.0149 10.9167 28.8279L10.9112 28.8366L21.7606 27.4533C22.2103 27.396 22.5324 26.9848 22.4803 26.5344Z" fill="white"/>
<path d="M27.6246 7.6115L25.8601 6.22949L23.0961 9.75857L24.8606 11.1406L27.6246 7.6115Z" fill="white"/>
<path d="M21.245 4.94192L19.0201 5.2124L19.561 9.66218L21.786 9.3917L21.245 4.94192Z" fill="white"/>
<path d="M18.3763 10.3324L14.8472 7.56836L13.4652 9.3329L16.9942 12.0969L18.3763 10.3324Z" fill="white"/>
<path d="M28.9635 18.6244L25.4344 15.8604L24.0524 17.6249L27.5814 20.3889L28.9635 18.6244Z" fill="white"/>
</svg>
