<svg width="30" height="30" viewBox="0 0 30 30" fill="none" xmlns="http://www.w3.org/2000/svg">
<path d="M5.6252 0C5.2802 0 5.00018 0.280019 5.00018 0.625019V10.625C5.00018 10.97 5.2802 11.2501 5.6252 11.2501C5.9702 11.2501 6.25022 10.97 6.25022 10.625V0.625019C6.25016 0.280019 5.9702 0 5.6252 0Z" fill="white"/>
<path d="M8.56638 7.68379C8.32263 7.44004 7.92636 7.44004 7.68261 7.68379L5.62509 9.74131L3.56634 7.68379C3.32259 7.44004 2.92632 7.44004 2.68257 7.68379C2.43882 7.92754 2.43882 8.32381 2.68257 8.56756L5.18259 11.0676C5.30511 11.1888 5.46507 11.2501 5.62509 11.2501C5.78511 11.2501 5.94507 11.1889 6.06636 11.0676L8.56638 8.56756C8.81013 8.32381 8.81013 7.92754 8.56638 7.68379Z" fill="white"/>
<path d="M25.0001 13.75C24.4864 13.75 24.0076 13.9063 23.6101 14.1725C23.2676 13.2001 22.3388 12.5 21.2501 12.5C20.7951 12.5 20.3676 12.6226 20.0001 12.8363V6.25002C20.0001 4.87125 18.8789 3.75 17.5001 3.75C16.4114 3.75 15.4826 4.45002 15.1401 5.4225C14.7426 5.15625 14.2639 4.99998 13.7501 4.99998C12.3713 4.99998 11.2501 6.12123 11.2501 7.5V18.125L9.07761 16.4963C7.79013 15.53 5.95761 15.6588 4.81638 16.7988C4.08513 17.53 4.08513 18.7188 4.81638 19.45L13.7177 28.3525C14.7801 29.415 16.1939 30 17.6964 30H20.6252C24.4152 30 27.5001 26.9163 27.5001 23.125V16.25C27.5001 14.8713 26.3789 13.75 25.0001 13.75ZM26.2502 23.125C26.2502 26.2263 23.7264 28.75 20.6252 28.75H17.6964C16.5276 28.75 15.4289 28.295 14.6014 27.4688L5.70015 18.5663C5.4564 18.3225 5.4564 17.9262 5.70015 17.6825C6.08763 17.2962 6.60513 17.0975 7.12515 17.0975C7.54767 17.0975 7.97265 17.2287 8.3289 17.4962L11.5002 19.8749C11.6902 20.0174 11.9452 20.0399 12.1552 19.9337C12.3664 19.8275 12.5002 19.6112 12.5002 19.375V7.5C12.5002 6.81123 13.0602 6.25002 13.7502 6.25002C14.4402 6.25002 15.0002 6.81129 15.0002 7.5V16.875C15.0002 17.22 15.2802 17.5 15.6252 17.5C15.9702 17.5 16.2502 17.22 16.2502 16.875V6.25002C16.2502 5.56125 16.8102 5.00004 17.5002 5.00004C18.1902 5.00004 18.7502 5.56131 18.7502 6.25002V16.875C18.7502 17.22 19.0302 17.5 19.3752 17.5C19.7202 17.5 20.0002 17.22 20.0002 16.875V15C20.0002 14.3112 20.5602 13.75 21.2502 13.75C21.9402 13.75 22.5002 14.3113 22.5002 15V16.875C22.5002 17.22 22.7802 17.5 23.1252 17.5C23.4702 17.5 23.7502 17.22 23.7502 16.875V16.25C23.7502 15.5612 24.3102 15 25.0002 15C25.6902 15 26.2502 15.5613 26.2502 16.25V23.125Z" fill="white"/>
</svg>
