<svg width="44" height="44" viewBox="0 0 44 44" fill="none" xmlns="http://www.w3.org/2000/svg">
<circle cx="22" cy="22" r="22" fill="white"/>
<g clip-path="url(#clip0)">
<path d="M29.5022 20.9398L21.7375 13.1752C21.5579 12.9955 21.3182 12.8965 21.0625 12.8965C20.8069 12.8965 20.5672 12.9955 20.3876 13.1752L19.8158 13.7469C19.4437 14.1194 19.4437 14.7249 19.8158 15.0968L26.336 21.617L19.8085 28.1445C19.629 28.3242 19.5298 28.5638 19.5298 28.8193C19.5298 29.075 19.629 29.3146 19.8085 29.4945L20.3804 30.066C20.5601 30.2457 20.7997 30.3448 21.0553 30.3448C21.3109 30.3448 21.5507 30.2457 21.7303 30.066L29.5022 22.2944C29.6822 22.1141 29.7811 21.8733 29.7805 21.6174C29.7811 21.3605 29.6822 21.1199 29.5022 20.9398Z" fill="#2F2F2F"/>
</g>
<defs>
<clipPath id="clip0">
<rect width="17.4483" height="17.4483" fill="white" transform="translate(15.931 12.8965)"/>
</clipPath>
</defs>
</svg>
